<svg width="201" height="201" viewBox="0 0 201 201">
  <g data-name="Group 1168" transform="translate(-384 -1392)" fill="#282f49">
    <rect data-name="Rectangle 2206" width="12" height="2" rx="1" transform="rotate(90 -500.5 891.5)"/>
    <rect data-name="Rectangle 2271" width="12" height="2" rx="1" transform="rotate(90 -554.5 945.5)"/>
    <rect data-name="Rectangle 2238" width="12" height="2" rx="1" transform="rotate(90 -527.5 918.5)"/>
    <rect data-name="Rectangle 2278" width="12" height="2" rx="1" transform="rotate(90 -581.5 972.5)"/>
    <rect data-name="Rectangle 2222" width="12" height="2" rx="1" transform="rotate(90 -514 905)"/>
    <rect data-name="Rectangle 2272" width="12" height="2" rx="1" transform="rotate(90 -568 959)"/>
    <rect data-name="Rectangle 2241" width="12" height="2" rx="1" transform="rotate(90 -541 932)"/>
    <rect data-name="Rectangle 2288" width="12" height="2" rx="1" transform="rotate(90 -595 986)"/>
    <rect data-name="Rectangle 2214" width="12" height="2" rx="1" transform="rotate(90 -446.5 945.5)"/>
    <rect data-name="Rectangle 2289" width="12" height="2" rx="1" transform="rotate(90 -500.5 999.5)"/>
    <rect data-name="Rectangle 2256" width="12" height="2" rx="1" transform="rotate(90 -473.5 972.5)"/>
    <rect data-name="Rectangle 2290" width="12" height="2" rx="1" transform="rotate(90 -527.5 1026.5)"/>
    <rect data-name="Rectangle 2231" width="12" height="2" rx="1" transform="rotate(90 -460 959)"/>
    <rect data-name="Rectangle 2291" width="12" height="2" rx="1" transform="rotate(90 -514 1013)"/>
    <rect data-name="Rectangle 2257" width="12" height="2" rx="1" transform="rotate(90 -487 986)"/>
    <rect data-name="Rectangle 2292" width="12" height="2" rx="1" transform="rotate(90 -541 1040)"/>
    <rect data-name="Rectangle 2210" width="12" height="2" rx="1" transform="rotate(90 -473.5 918.5)"/>
    <rect data-name="Rectangle 2279" width="12" height="2" rx="1" transform="rotate(90 -527.5 972.5)"/>
    <rect data-name="Rectangle 2248" width="12" height="2" rx="1" transform="rotate(90 -500.5 945.5)"/>
    <rect data-name="Rectangle 2280" width="12" height="2" rx="1" transform="rotate(90 -554.5 999.5)"/>
    <rect data-name="Rectangle 2226" width="12" height="2" rx="1" transform="rotate(90 -487 932)"/>
    <rect data-name="Rectangle 2281" width="12" height="2" rx="1" transform="rotate(90 -541 986)"/>
    <rect data-name="Rectangle 2249" width="12" height="2" rx="1" transform="rotate(90 -514 959)"/>
    <rect data-name="Rectangle 2293" width="12" height="2" rx="1" transform="rotate(90 -568 1013)"/>
    <rect data-name="Rectangle 2219" width="12" height="2" rx="1" transform="rotate(90 -419.5 972.5)"/>
    <rect data-name="Rectangle 2310" width="12" height="2" rx="1" transform="rotate(90 -473.5 1026.5)"/>
    <rect data-name="Rectangle 2262" width="12" height="2" rx="1" transform="rotate(90 -446.5 999.5)"/>
    <rect data-name="Rectangle 2311" width="12" height="2" rx="1" transform="rotate(90 -500.5 1053.5)"/>
    <rect data-name="Rectangle 2232" width="12" height="2" rx="1" transform="rotate(90 -433 986)"/>
    <rect data-name="Rectangle 2312" width="12" height="2" rx="1" transform="rotate(90 -487 1040)"/>
    <rect data-name="Rectangle 2263" width="12" height="2" rx="1" transform="rotate(90 -460 1013)"/>
    <rect data-name="Rectangle 2313" width="12" height="2" rx="1" transform="rotate(90 -514 1067)"/>
    <rect data-name="Rectangle 2209" width="12" height="2" rx="1" transform="rotate(90 -487 905)"/>
    <rect data-name="Rectangle 2273" width="12" height="2" rx="1" transform="rotate(90 -541 959)"/>
    <rect data-name="Rectangle 2242" width="12" height="2" rx="1" transform="rotate(90 -514 932)"/>
    <rect data-name="Rectangle 2282" width="12" height="2" rx="1" transform="rotate(90 -568 986)"/>
    <rect data-name="Rectangle 2223" width="12" height="2" rx="1" transform="rotate(90 -500.5 918.5)"/>
    <rect data-name="Rectangle 2274" width="12" height="2" rx="1" transform="rotate(90 -554.5 972.5)"/>
    <rect data-name="Rectangle 2243" width="12" height="2" rx="1" transform="rotate(90 -527.5 945.5)"/>
    <rect data-name="Rectangle 2294" width="12" height="2" rx="1" transform="rotate(90 -581.5 999.5)"/>
    <rect data-name="Rectangle 2217" width="12" height="2" rx="1" transform="rotate(90 -433 959)"/>
    <rect data-name="Rectangle 2314" width="12" height="2" rx="1" transform="rotate(90 -487 1013)"/>
    <rect data-name="Rectangle 2258" width="12" height="2" rx="1" transform="rotate(90 -460 986)"/>
    <rect data-name="Rectangle 2315" width="12" height="2" rx="1" transform="rotate(90 -514 1040)"/>
    <rect data-name="Rectangle 2233" width="12" height="2" rx="1" transform="rotate(90 -446.5 972.5)"/>
    <rect data-name="Rectangle 2316" width="12" height="2" rx="1" transform="rotate(90 -500.5 1026.5)"/>
    <rect data-name="Rectangle 2259" width="12" height="2" rx="1" transform="rotate(90 -473.5 999.5)"/>
    <rect data-name="Rectangle 2317" width="12" height="2" rx="1" transform="rotate(90 -527.5 1053.5)"/>
    <rect data-name="Rectangle 2211" width="12" height="2" rx="1" transform="rotate(90 -460 932)"/>
    <rect data-name="Rectangle 2295" width="12" height="2" rx="1" transform="rotate(90 -514 986)"/>
    <rect data-name="Rectangle 2250" width="12" height="2" rx="1" transform="rotate(90 -487 959)"/>
    <rect data-name="Rectangle 2296" width="12" height="2" rx="1" transform="rotate(90 -541 1013)"/>
    <rect data-name="Rectangle 2227" width="12" height="2" rx="1" transform="rotate(90 -473.5 945.5)"/>
    <rect data-name="Rectangle 2297" width="12" height="2" rx="1" transform="rotate(90 -527.5 999.5)"/>
    <rect data-name="Rectangle 2251" width="12" height="2" rx="1" transform="rotate(90 -500.5 972.5)"/>
    <rect data-name="Rectangle 2298" width="12" height="2" rx="1" transform="rotate(90 -554.5 1026.5)"/>
    <rect data-name="Rectangle 2221" width="12" height="2" rx="1" transform="rotate(90 -406 986)"/>
    <rect data-name="Rectangle 2318" width="12" height="2" rx="1" transform="rotate(90 -460 1040)"/>
    <rect data-name="Rectangle 2264" width="12" height="2" rx="1" transform="rotate(90 -433 1013)"/>
    <rect data-name="Rectangle 2319" width="12" height="2" rx="1" transform="rotate(90 -487 1067)"/>
    <rect data-name="Rectangle 2236" width="12" height="2" rx="1" transform="rotate(90 -419.5 999.5)"/>
    <rect data-name="Rectangle 2320" width="12" height="2" rx="1" transform="rotate(90 -473.5 1053.5)"/>
    <rect data-name="Rectangle 2265" width="12" height="2" rx="1" transform="rotate(90 -446.5 1026.5)"/>
    <rect data-name="Rectangle 2321" width="12" height="2" rx="1" transform="rotate(90 -500.5 1080.5)"/>
    <rect data-name="Rectangle 2207" width="12" height="2" rx="1" transform="matrix(-1 0 0 -1 396 1399)"/>
    <rect data-name="Rectangle 2270" width="12" height="2" rx="1" transform="matrix(-1 0 0 -1 396 1507)"/>
    <rect data-name="Rectangle 2239" width="12" height="2" rx="1" transform="matrix(-1 0 0 -1 396 1453)"/>
    <rect data-name="Rectangle 2283" width="12" height="2" rx="1" transform="matrix(-1 0 0 -1 396 1561)"/>
    <rect data-name="Rectangle 2224" width="12" height="2" rx="1" transform="matrix(-1 0 0 -1 396 1426)"/>
    <rect data-name="Rectangle 2275" width="12" height="2" rx="1" transform="matrix(-1 0 0 -1 396 1534)"/>
    <rect data-name="Rectangle 2244" width="12" height="2" rx="1" transform="matrix(-1 0 0 -1 396 1480)"/>
    <rect data-name="Rectangle 2299" width="12" height="2" rx="1" transform="matrix(-1 0 0 -1 396 1588)"/>
    <rect data-name="Rectangle 2215" width="12" height="2" rx="1" transform="matrix(-1 0 0 -1 504 1399)"/>
    <rect data-name="Rectangle 2300" width="12" height="2" rx="1" transform="matrix(-1 0 0 -1 504 1507)"/>
    <rect data-name="Rectangle 2252" width="12" height="2" rx="1" transform="matrix(-1 0 0 -1 504 1453)"/>
    <rect data-name="Rectangle 2301" width="12" height="2" rx="1" transform="matrix(-1 0 0 -1 504 1561)"/>
    <rect data-name="Rectangle 2228" width="12" height="2" rx="1" transform="matrix(-1 0 0 -1 504 1426)"/>
    <rect data-name="Rectangle 2302" width="12" height="2" rx="1" transform="matrix(-1 0 0 -1 504 1534)"/>
    <rect data-name="Rectangle 2253" width="12" height="2" rx="1" transform="matrix(-1 0 0 -1 504 1480)"/>
    <rect data-name="Rectangle 2303" width="12" height="2" rx="1" transform="matrix(-1 0 0 -1 504 1588)"/>
    <rect data-name="Rectangle 2212" width="12" height="2" rx="1" transform="matrix(-1 0 0 -1 450 1399)"/>
    <rect data-name="Rectangle 2284" width="12" height="2" rx="1" transform="matrix(-1 0 0 -1 450 1507)"/>
    <rect data-name="Rectangle 2245" width="12" height="2" rx="1" transform="matrix(-1 0 0 -1 450 1453)"/>
    <rect data-name="Rectangle 2285" width="12" height="2" rx="1" transform="matrix(-1 0 0 -1 450 1561)"/>
    <rect data-name="Rectangle 2229" width="12" height="2" rx="1" transform="matrix(-1 0 0 -1 450 1426)"/>
    <rect data-name="Rectangle 2286" width="12" height="2" rx="1" transform="matrix(-1 0 0 -1 450 1534)"/>
    <rect data-name="Rectangle 2246" width="12" height="2" rx="1" transform="matrix(-1 0 0 -1 450 1480)"/>
    <rect data-name="Rectangle 2304" width="12" height="2" rx="1" transform="matrix(-1 0 0 -1 450 1588)"/>
    <rect data-name="Rectangle 2218" width="12" height="2" rx="1" transform="matrix(-1 0 0 -1 558 1399)"/>
    <rect data-name="Rectangle 2322" width="12" height="2" rx="1" transform="matrix(-1 0 0 -1 558 1507)"/>
    <rect data-name="Rectangle 2266" width="12" height="2" rx="1" transform="matrix(-1 0 0 -1 558 1453)"/>
    <rect data-name="Rectangle 2323" width="12" height="2" rx="1" transform="matrix(-1 0 0 -1 558 1561)"/>
    <rect data-name="Rectangle 2234" width="12" height="2" rx="1" transform="matrix(-1 0 0 -1 558 1426)"/>
    <rect data-name="Rectangle 2324" width="12" height="2" rx="1" transform="matrix(-1 0 0 -1 558 1534)"/>
    <rect data-name="Rectangle 2267" width="12" height="2" rx="1" transform="matrix(-1 0 0 -1 558 1480)"/>
    <rect data-name="Rectangle 2325" width="12" height="2" rx="1" transform="matrix(-1 0 0 -1 558 1588)"/>
    <rect data-name="Rectangle 2208" width="12" height="2" rx="1" transform="matrix(-1 0 0 -1 423 1399)"/>
    <rect data-name="Rectangle 2276" width="12" height="2" rx="1" transform="matrix(-1 0 0 -1 423 1507)"/>
    <rect data-name="Rectangle 2240" width="12" height="2" rx="1" transform="matrix(-1 0 0 -1 423 1453)"/>
    <rect data-name="Rectangle 2287" width="12" height="2" rx="1" transform="matrix(-1 0 0 -1 423 1561)"/>
    <rect data-name="Rectangle 2225" width="12" height="2" rx="1" transform="matrix(-1 0 0 -1 423 1426)"/>
    <rect data-name="Rectangle 2277" width="12" height="2" rx="1" transform="matrix(-1 0 0 -1 423 1534)"/>
    <rect data-name="Rectangle 2247" width="12" height="2" rx="1" transform="matrix(-1 0 0 -1 423 1480)"/>
    <rect data-name="Rectangle 2305" width="12" height="2" rx="1" transform="matrix(-1 0 0 -1 423 1588)"/>
    <rect data-name="Rectangle 2216" width="12" height="2" rx="1" transform="matrix(-1 0 0 -1 531 1399)"/>
    <rect data-name="Rectangle 2326" width="12" height="2" rx="1" transform="matrix(-1 0 0 -1 531 1507)"/>
    <rect data-name="Rectangle 2260" width="12" height="2" rx="1" transform="matrix(-1 0 0 -1 531 1453)"/>
    <rect data-name="Rectangle 2327" width="12" height="2" rx="1" transform="matrix(-1 0 0 -1 531 1561)"/>
    <rect data-name="Rectangle 2235" width="12" height="2" rx="1" transform="matrix(-1 0 0 -1 531 1426)"/>
    <rect data-name="Rectangle 2328" width="12" height="2" rx="1" transform="matrix(-1 0 0 -1 531 1534)"/>
    <rect data-name="Rectangle 2261" width="12" height="2" rx="1" transform="matrix(-1 0 0 -1 531 1480)"/>
    <rect data-name="Rectangle 2329" width="12" height="2" rx="1" transform="matrix(-1 0 0 -1 531 1588)"/>
    <rect data-name="Rectangle 2213" width="12" height="2" rx="1" transform="matrix(-1 0 0 -1 477 1399)"/>
    <rect data-name="Rectangle 2306" width="12" height="2" rx="1" transform="matrix(-1 0 0 -1 477 1507)"/>
    <rect data-name="Rectangle 2254" width="12" height="2" rx="1" transform="matrix(-1 0 0 -1 477 1453)"/>
    <rect data-name="Rectangle 2307" width="12" height="2" rx="1" transform="matrix(-1 0 0 -1 477 1561)"/>
    <rect data-name="Rectangle 2230" width="12" height="2" rx="1" transform="matrix(-1 0 0 -1 477 1426)"/>
    <rect data-name="Rectangle 2308" width="12" height="2" rx="1" transform="matrix(-1 0 0 -1 477 1534)"/>
    <rect data-name="Rectangle 2255" width="12" height="2" rx="1" transform="matrix(-1 0 0 -1 477 1480)"/>
    <rect data-name="Rectangle 2309" width="12" height="2" rx="1" transform="matrix(-1 0 0 -1 477 1588)"/>
    <rect data-name="Rectangle 2220" width="12" height="2" rx="1" transform="matrix(-1 0 0 -1 585 1399)"/>
    <rect data-name="Rectangle 2330" width="12" height="2" rx="1" transform="matrix(-1 0 0 -1 585 1507)"/>
    <rect data-name="Rectangle 2268" width="12" height="2" rx="1" transform="matrix(-1 0 0 -1 585 1453)"/>
    <rect data-name="Rectangle 2331" width="12" height="2" rx="1" transform="matrix(-1 0 0 -1 585 1561)"/>
    <rect data-name="Rectangle 2237" width="12" height="2" rx="1" transform="matrix(-1 0 0 -1 585 1426)"/>
    <rect data-name="Rectangle 2332" width="12" height="2" rx="1" transform="matrix(-1 0 0 -1 585 1534)"/>
    <rect data-name="Rectangle 2269" width="12" height="2" rx="1" transform="matrix(-1 0 0 -1 585 1480)"/>
    <rect data-name="Rectangle 2333" width="12" height="2" rx="1" transform="matrix(-1 0 0 -1 585 1588)"/>
  </g>
</svg>
