<?xml version="1.0" encoding="utf-8"?>
<svg xmlns="http://www.w3.org/2000/svg" viewBox="0 0 228.8895 229.7976" width="228.889px" height="229.798px">
  <g transform="matrix(1, 0, 0, 1, -105.44149780273438, -54.00340270996094)">
    <path fill-rule="evenodd" clip-rule="evenodd" d="M138.621 187.732H108.17C104.532 187.732 104.532 182.342 108.17 182.342H138.621C142.124 182.342 142.124 187.732 138.621 187.732Z" fill="#5AAAE7"/>
    <path fill-rule="evenodd" clip-rule="evenodd" d="M138.621 155.529H108.17C104.532 155.529 104.532 150.14 108.17 150.14H138.621C142.124 150.14 142.124 155.529 138.621 155.529Z" fill="#5AAAE7"/>
    <path fill-rule="evenodd" clip-rule="evenodd" d="M138.621 123.461H108.17C104.532 123.461 104.532 118.072 108.17 118.072H138.621C142.124 118.072 142.124 123.461 138.621 123.461Z" fill="#5AAAE7"/>
    <path fill-rule="evenodd" clip-rule="evenodd" d="M138.621 219.8H108.17C104.532 219.8 104.532 214.41 108.17 214.41H138.621C142.124 214.41 142.124 219.8 138.621 219.8Z" fill="#5AAAE7"/>
    <path fill-rule="evenodd" clip-rule="evenodd" d="M150.073 227.346H138.621C137.138 227.346 135.926 226.133 135.926 224.651V209.56C135.926 208.078 137.138 206.865 138.621 206.865H150.073C151.556 206.865 152.768 208.078 152.768 209.56V224.651C152.768 226.133 151.556 227.346 150.073 227.346Z" fill="#1E81CE"/>
    <path fill-rule="evenodd" clip-rule="evenodd" d="M150.073 195.143H138.621C137.138 195.143 135.926 193.93 135.926 192.448V177.492C135.926 176.01 137.138 174.797 138.621 174.797H150.073C151.556 174.797 152.768 176.01 152.768 177.492V192.448C152.768 193.93 151.556 195.143 150.073 195.143Z" fill="#1E81CE"/>
    <path fill-rule="evenodd" clip-rule="evenodd" d="M150.073 163.075H138.621C137.138 163.075 135.926 161.862 135.926 160.38V145.29C135.926 143.807 137.138 142.595 138.621 142.595H150.073C151.556 142.595 152.768 143.807 152.768 145.29V160.38C152.768 161.862 151.556 163.075 150.073 163.075Z" fill="#1E81CE"/>
    <path fill-rule="evenodd" clip-rule="evenodd" d="M150.073 130.872H138.621C137.138 130.872 135.926 129.794 135.926 128.312V113.221C135.926 111.739 137.138 110.526 138.621 110.526H150.073C151.556 110.526 152.768 111.739 152.768 113.221V128.312C152.768 129.794 151.556 130.872 150.073 130.872Z" fill="#1E81CE"/>
    <path fill-rule="evenodd" clip-rule="evenodd" d="M236.039 283.801C234.556 283.801 233.344 282.588 233.344 281.106V250.655C233.344 247.152 238.733 247.152 238.733 250.655V281.106C238.733 282.588 237.521 283.801 236.039 283.801Z" fill="#5AAAE7"/>
    <path fill-rule="evenodd" clip-rule="evenodd" d="M203.835 283.801C202.353 283.801 201.141 282.588 201.141 281.106V250.655C201.141 247.152 206.53 247.152 206.53 250.655V281.106C206.53 282.588 205.318 283.801 203.835 283.801Z" fill="#5AAAE7"/>
    <path fill-rule="evenodd" clip-rule="evenodd" d="M171.769 283.801C170.287 283.801 169.074 282.588 169.074 281.106V250.655C169.074 247.152 174.464 247.152 174.464 250.655V281.106C174.464 282.588 173.251 283.801 171.769 283.801Z" fill="#5AAAE7"/>
    <path fill-rule="evenodd" clip-rule="evenodd" d="M268.109 283.801C266.627 283.801 265.414 282.588 265.414 281.106V250.655C265.414 247.152 270.804 247.152 270.804 250.655V281.106C270.804 282.588 269.591 283.801 268.109 283.801Z" fill="#5AAAE7"/>
    <path fill-rule="evenodd" clip-rule="evenodd" d="M179.313 253.35H164.222C162.74 253.35 161.527 252.138 161.527 250.655V239.203C161.527 237.72 162.74 236.508 164.222 236.508H179.313C180.795 236.508 182.008 237.72 182.008 239.203V250.655C182.008 252.138 180.795 253.35 179.313 253.35Z" fill="#1E81CE"/>
    <path fill-rule="evenodd" clip-rule="evenodd" d="M211.383 253.35H196.292C194.81 253.35 193.598 252.138 193.598 250.655V239.203C193.598 237.72 194.81 236.508 196.292 236.508H211.383C212.865 236.508 214.078 237.72 214.078 239.203V250.655C214.078 252.138 212.865 253.35 211.383 253.35Z" fill="#1E81CE"/>
    <path fill-rule="evenodd" clip-rule="evenodd" d="M243.452 253.35H228.496C227.013 253.35 225.801 252.138 225.801 250.655V239.203C225.801 237.72 227.013 236.508 228.496 236.508H243.452C244.934 236.508 246.146 237.72 246.146 239.203V250.655C246.146 252.138 244.934 253.35 243.452 253.35Z" fill="#1E81CE"/>
    <path fill-rule="evenodd" clip-rule="evenodd" d="M275.653 253.35H260.562C259.08 253.35 257.867 252.138 257.867 250.655V239.203C257.867 237.72 259.08 236.508 260.562 236.508H275.653C277.135 236.508 278.348 237.72 278.348 239.203V250.655C278.348 252.138 277.135 253.35 275.653 253.35Z" fill="#1E81CE"/>
    <path fill-rule="evenodd" clip-rule="evenodd" d="M331.703 155.53H301.252C297.749 155.53 297.749 150.14 301.252 150.14H331.703C335.207 150.14 335.207 155.53 331.703 155.53Z" fill="#5AAAE7"/>
    <path fill-rule="evenodd" clip-rule="evenodd" d="M331.703 187.732H301.252C297.749 187.732 297.749 182.343 301.252 182.343H331.703C335.207 182.343 335.207 187.732 331.703 187.732Z" fill="#5AAAE7"/>
    <path fill-rule="evenodd" clip-rule="evenodd" d="M331.703 219.8H301.252C297.749 219.8 297.749 214.411 301.252 214.411H331.703C335.207 214.411 335.207 219.8 331.703 219.8Z" fill="#5AAAE7"/>
    <path fill-rule="evenodd" clip-rule="evenodd" d="M331.703 123.461H301.252C297.749 123.461 297.749 118.072 301.252 118.072H331.703C335.207 118.072 335.207 123.461 331.703 123.461Z" fill="#5AAAE7"/>
    <path fill-rule="evenodd" clip-rule="evenodd" d="M301.253 131.007H289.8C288.318 131.007 287.105 129.794 287.105 128.312V113.221C287.105 111.739 288.318 110.526 289.8 110.526H301.253C302.735 110.526 303.948 111.739 303.948 113.221V128.312C303.948 129.794 302.735 131.007 301.253 131.007Z" fill="#1E81CE"/>
    <path fill-rule="evenodd" clip-rule="evenodd" d="M301.253 163.075H289.8C288.318 163.075 287.105 161.862 287.105 160.38V145.29C287.105 143.807 288.318 142.595 289.8 142.595H301.253C302.735 142.595 303.948 143.807 303.948 145.29V160.38C303.948 161.862 302.735 163.075 301.253 163.075Z" fill="#1E81CE"/>
    <path fill-rule="evenodd" clip-rule="evenodd" d="M301.253 195.143H289.8C288.318 195.143 287.105 193.93 287.105 192.448V177.492C287.105 176.01 288.318 174.797 289.8 174.797H301.253C302.735 174.797 303.948 176.01 303.948 177.492V192.448C303.948 193.93 302.735 195.143 301.253 195.143Z" fill="#1E81CE"/>
    <path fill-rule="evenodd" clip-rule="evenodd" d="M301.253 227.346H289.8C288.318 227.346 287.105 226.133 287.105 224.651V209.56C287.105 208.078 288.318 206.865 289.8 206.865H301.253C302.735 206.865 303.948 208.078 303.948 209.56V224.651C303.948 226.133 302.735 227.346 301.253 227.346Z" fill="#1E81CE"/>
    <path fill-rule="evenodd" clip-rule="evenodd" d="M203.835 89.7767C202.353 89.7767 201.141 88.6988 201.141 87.0819V56.6308C201.141 53.1276 206.53 53.1276 206.53 56.6308V87.0819C206.53 88.5641 205.318 89.7767 203.835 89.7767Z" fill="#5AAAE7"/>
    <path fill-rule="evenodd" clip-rule="evenodd" d="M236.039 89.7767C234.556 89.7767 233.344 88.6988 233.344 87.0819V56.6308C233.344 53.1276 238.733 53.1276 238.733 56.6308V87.0819C238.733 88.5641 237.521 89.7767 236.039 89.7767Z" fill="#5AAAE7"/>
    <path fill-rule="evenodd" clip-rule="evenodd" d="M268.109 89.7767C266.627 89.7767 265.414 88.6988 265.414 87.0819V56.6308C265.414 53.1276 270.804 53.1276 270.804 56.6308V87.0819C270.804 88.5641 269.591 89.7767 268.109 89.7767Z" fill="#5AAAE7"/>
    <path fill-rule="evenodd" clip-rule="evenodd" d="M171.769 89.7767C170.287 89.7767 169.074 88.6988 169.074 87.0819V56.6308C169.074 53.1276 174.464 53.1276 174.464 56.6308V87.0819C174.464 88.5641 173.251 89.7767 171.769 89.7767Z" fill="#5AAAE7"/>
    <path fill-rule="evenodd" clip-rule="evenodd" d="M179.313 101.23H164.222C162.74 101.23 161.527 100.152 161.527 98.5348V87.082C161.527 85.5999 162.74 84.3872 164.222 84.3872H179.313C180.795 84.3872 182.008 85.5999 182.008 87.082V98.5348C182.008 100.152 180.795 101.23 179.313 101.23Z" fill="#1E81CE"/>
    <path fill-rule="evenodd" clip-rule="evenodd" d="M211.383 101.23H196.292C194.81 101.23 193.598 100.152 193.598 98.5348V87.082C193.598 85.5999 194.81 84.3872 196.292 84.3872H211.383C212.865 84.3872 214.078 85.5999 214.078 87.082V98.5348C214.078 100.152 212.865 101.23 211.383 101.23Z" fill="#1E81CE"/>
    <path fill-rule="evenodd" clip-rule="evenodd" d="M243.452 101.23H228.496C227.013 101.23 225.801 100.152 225.801 98.5348V87.082C225.801 85.5999 227.013 84.3872 228.496 84.3872H243.452C244.934 84.3872 246.146 85.5999 246.146 87.082V98.5348C246.146 100.152 244.934 101.23 243.452 101.23Z" fill="#1E81CE"/>
    <path fill-rule="evenodd" clip-rule="evenodd" d="M275.653 101.23H260.562C259.08 101.23 257.867 100.152 257.867 98.5348V87.082C257.867 85.5999 259.08 84.3872 260.562 84.3872H275.653C277.135 84.3872 278.348 85.5999 278.348 87.082V98.5348C278.348 100.152 277.135 101.23 275.653 101.23Z" fill="#1E81CE"/>
    <path fill-rule="evenodd" clip-rule="evenodd" d="M284.813 241.898H155.059C150.747 241.898 147.379 238.529 147.379 234.218V103.52C147.379 99.3436 150.747 95.8403 155.059 95.8403H284.813C288.99 95.8403 292.493 99.3436 292.493 103.52V234.218C292.493 238.529 288.99 241.898 284.813 241.898Z" fill="#5AAAE7"/>
    <path fill-rule="evenodd" clip-rule="evenodd" d="M263.527 216.432H176.351C174.869 216.432 173.656 215.219 173.656 213.737V124.135C173.656 122.653 174.869 121.44 176.351 121.44H248.032C248.706 121.44 249.514 121.845 250.053 122.384L265.548 139.9C265.953 140.439 266.222 140.978 266.222 141.651V213.737C266.222 215.219 265.009 216.432 263.527 216.432Z" fill="#1E81CE"/>
    <path fill-rule="evenodd" clip-rule="evenodd" d="M241.427 193.526H198.445C196.963 193.526 195.75 192.313 195.75 190.831V147.041C195.75 145.559 196.963 144.346 198.445 144.346H241.427C242.909 144.346 244.121 145.559 244.121 147.041V190.831C244.121 192.313 242.909 193.526 241.427 193.526Z" fill="#F7CC3F"/>
  </g>
</svg>